# xmcd
#
# Track frame offsets:
#   183
#   18850
#   41558
#   64975
#   83863
#   106338
#   130845
#   151798
#   182475
#
# Disc length: 2771 seconds
#
# Revision: 0
# Processed by: cddbd v1.5.1PL0 Copyright (c) Steve Scherf et al.
# Submitted via: CD-Datenbank 4.*
#
DISCID=670ad109
DTITLE=Kashif - Kashif
DYEAR=1989
DGENRE=R and B
TTITLE0=Personality
TTITLE1=Looking For A Lover
TTITLE2=Love Letter Out Loud
TTITLE3=Step Into My World
TTITLE4=I´m Coming Home
TTITLE5=Aint No Woman (Like The One I Got)
TTITLE6=After You
TTITLE7=My Door
TTITLE8=Pop The Question
EXTD=
EXTT0=
EXTT1=
EXTT2=
EXTT3=
EXTT4=
EXTT5=
EXTT6=
EXTT7=
EXTT8=
PLAYORDER=
